<?xml version="1.0" encoding="utf-8"?>
<!-- Generator: Adobe Illustrator 21.0.0, SVG Export Plug-In . SVG Version: 6.00 Build 0)  -->
<svg version="1.1" id="圖層_1" xmlns="http://www.w3.org/2000/svg" xmlns:xlink="http://www.w3.org/1999/xlink" x="0px" y="0px"
	 viewBox="0 0 143.1 25.8" style="enable-background:new 0 0 143.1 25.8;" xml:space="preserve">
<style type="text/css">
	.st0{fill:#FFFFFF;}
</style>
<g>
	<g id="XMLID_221_">
		<path id="XMLID_273_" class="st0" d="M54.6,20.6l1.6-8.6c0.3-1.6,0.6-3.3,0.8-4.5h3.8l-0.5,2.4h0.1c1.2-1.7,2.4-2.4,4.1-2.4
			c2.1,0,3.3,1.3,3.3,3.5c0,0.6-0.1,1.5-0.2,2.2l-1.4,7.4h-3.8l1.3-7.1c0.1-0.4,0.1-1,0.1-1.4c0-0.9-0.3-1.5-1.3-1.5
			c-1.2,0-2.7,1.5-3.2,4.4l-1.1,5.7H54.6z"/>
		<path id="XMLID_271_" class="st0" d="M76.3,16.3c1,0.6,3.2,1.4,4.8,1.4c1.5,0,2.8-0.7,2.8-2.1c0-1-0.8-1.7-2.4-2.5
			c-1.9-1-3.7-2.4-3.7-4.7c0-3.6,3.1-5.7,7-5.7c2.1,0,3.4,0.5,4.2,0.9l-0.6,3.3c-0.6-0.3-2.4-1-3.8-1c-1.8,0-2.7,0.9-2.7,1.9
			c0,1,1.1,1.7,2.6,2.5c2.1,1.1,3.5,2.6,3.5,4.7c0,3.9-3.2,5.9-7.2,5.9c-2.5,0-4.2-0.6-5.1-1.3L76.3,16.3z"/>
		<path id="XMLID_270_" class="st0" d="M51.3,3l-0.9,4.6l-0.2,0.8l-1.1,5.6l-0.2,1c-0.4,1.2-1.6,2-2.9,2c-1.7,0-3.1-1.4-3.1-3.1
			c0-0.1,0-0.2,0-0.3l0.1-0.5l1-5.5l0.1-0.3L45,3h-3.8l-0.9,4.6L39.5,12l-0.2,1.1c0,0.2,0,0.4,0,0.7c0,2.2,1,4.2,2.7,5.4
			c1.2,0.9,2.6,1.4,4.2,1.4c0.7,0,1.3-0.1,1.9-0.3c2.2-0.6,3.9-2.3,4.6-4.4l0.3-1.8l1.3-6.6L55.1,3H51.3z"/>
		<polygon id="XMLID_269_" class="st0" points="75.2,7.5 71.4,7.5 68.9,20.6 72.7,20.6 		"/>
		<circle id="XMLID_268_" class="st0" cx="74" cy="4" r="2"/>
		<path id="XMLID_265_" class="st0" d="M114.7,7.5L114.7,7.5l-0.5,0c-6.3,0-9.2,4.3-9.2,8.6c0,2.7,1.6,4.5,3.9,4.5
			c1.5,0,2.6-0.4,3.8-2.5h0.1l-0.5,2.5h0.3h3.5l0-0.1l2.2-11.8l0.1-0.4C117.4,8,116.1,7.6,114.7,7.5z M113.7,13L113.7,13l-0.1,0.4
			c-0.6,3.1-2,4.1-3.1,4.1c-1,0-1.5-0.9-1.5-2.1c0-2.4,0.8-4.8,3.7-5.1c0.4,0,1.2,0,1.5,0.1L113.7,13z"/>
		<path id="XMLID_264_" class="st0" d="M128.8,7.5c-1.8,0-3.2,1.2-4.1,2.9h-0.1l0.6-2.9h-3.8l-0.1,0.3L119,20.6h3.8h0l1-5.2
			c0.6-2.3,2.2-4.2,4.5-4.2c0.2,0,0.5,0,0.7,0l0.7-3.7C129.3,7.5,129.1,7.5,128.8,7.5z"/>
		<polygon id="XMLID_263_" class="st0" points="128.5,25.8 128.5,25.8 128.6,25.1 		"/>
		<path id="XMLID_260_" class="st0" d="M138.9,7.5c-1.3,0-2.5,0.3-3.4,1.2l0.1-0.5l0.1-0.6v0l0,0l0,0H132l-2.5,13.1l-0.9,4.5
			l-0.1,0.7h0.6h3.1h0.1l1-5.2l0.1-0.5l0,0c0.5,0.3,1.3,0.5,2.4,0.5c4.5,0,7.4-4.1,7.4-8.5C143.1,9.5,141.7,7.5,138.9,7.5z
			 M135.6,17.8c-0.7,0-1.3-0.2-1.7-0.6l0.7-3.9v0c0.6-1.7,1.7-2.7,2.8-2.7c1.2,0,1.7,0.8,1.7,1.8C139.2,14.9,137.6,17.8,135.6,17.8z
			"/>
		<path id="XMLID_258_" class="st0" d="M93.6,0l-3.9,20.6h3.8l1.1-6c0.5-2.5,1.8-4,3.1-4c0.9,0,1.3,0.6,1.3,1.4
			c0,0.6-0.1,1.1-0.2,1.6l-1.3,7h3.8l1.4-7.3c0.1-0.7,0.2-1.7,0.2-2.3c0-2.2-1.2-3.5-3.2-3.5c-1.7,0-3,0.8-4.1,1.9l0,0L97.4,0H93.6z
			"/>
	</g>
	<path id="XMLID_207_" class="st0" d="M32.2,7.9c-0.1-0.5-0.3-1-0.5-1.5c-0.4-0.8-0.9-1.5-1.5-2.2c-0.2-0.2-0.4-0.3-0.6-0.5
		c-0.9-0.7-2-1.2-3.1-1.4c-1.8-0.4-3.6,0-5.2,0.9c-0.3,0.2-0.5,0.3-0.7,0.5c-0.4,0.3-0.8,0.7-1.1,1.1c0,0,0,0,0,0c0,0,0,0,0,0
		l-1.7,2.2c0,0,0,0,0,0L14,11.8l-0.3,0.4c0,0,0,0,0,0l-0.1,0.1l-3.9,4.9l0,0l-0.1,0.1c-0.2,0.2-0.4,0.4-0.6,0.6
		c-0.5,0.4-1.1,0.6-1.7,0.6c-0.8,0-1.5-0.2-2.2-0.7c-0.6-0.4-0.9-1-1.1-1.7c0-0.2-0.1-0.3-0.1-0.5c-0.1-0.6,0-1.2,0.3-1.7
		c0.2-0.3,0.3-0.6,0.5-0.8c0,0,0.1-0.1,0.1-0.1l1-1.2L7,10.1l0.6-0.7l1-1.3l0.8-1L12.9,9l2.5-3.1L11.9,4l0,0l0,0L8.3,2.2L4,7.6
		L3.5,8.3l-1.7,2.2l0,0c-0.2,0.3-0.4,0.6-0.6,0.8C0,13-0.2,15,0.2,16.9c0.1,0.4,0.2,0.7,0.4,1.1c0,0.1,0.1,0.1,0.1,0.2
		c0.4,0.8,0.9,1.5,1.5,2.2c0.2,0.2,0.4,0.3,0.5,0.5c0.9,0.7,2,1.2,3.1,1.4c1.3,0.3,2.7,0.1,4-0.3c0.4-0.1,0.7-0.3,1.1-0.5
		c0.7-0.4,1.3-0.9,1.9-1.6c0,0,0.1-0.1,0.1-0.1c0,0,0.1-0.1,0.1-0.1l1.6-2.1l3.4-4.3l0.2-0.3l0.4-0.5l3.7-4.7l0.3-0.3l0,0
		c0,0,0,0,0,0c0.2-0.3,0.5-0.5,0.8-0.7c0.5-0.3,1.1-0.5,1.7-0.5c0.8,0,1.5,0.2,2.2,0.7c0.9,0.7,1.3,1.7,1.2,2.8c0,0.1,0,0.1,0,0.2
		c0,0.3-0.1,0.6-0.2,0.9c-0.1,0.2-0.2,0.5-0.4,0.7l-0.1,0.1c0,0-0.1,0.1-0.1,0.1c0,0-0.1,0.1-0.1,0.1l-0.9,1.2L25,14.8l-0.7,0.8
		l-0.6,0.8l-0.8,1l-3.5-1.8l-2.5,3.1l3.5,1.8l0,0l0,0l3.5,1.9l3.9-4.9l0,0l2.8-3.5c0,0,0.1-0.1,0.1-0.1c0,0,0.1-0.1,0.1-0.1
		c0.1-0.2,0.3-0.4,0.4-0.5c0.7-1.2,1.1-2.5,1.1-3.9C32.3,8.8,32.3,8.4,32.2,7.9z"/>
</g>
</svg>
