<?xml version="1.0" encoding="UTF-8"?>
<!-- Generator: Adobe Illustrator 21.0.0, SVG Export Plug-In . SVG Version: 6.00 Build 0)  -->
<svg version="1.1" id="圖層_1" xmlns="http://www.w3.org/2000/svg" xmlns:xlink="http://www.w3.org/1999/xlink" x="0px" y="0px" viewBox="0 0 400 22" style="enable-background:new 0 0 400 22;" xml:space="preserve">
<style type="text/css">
	.st0{fill:#333844;}
	.st1{fill:#77C7C2;}
	.st2{fill:#E46C87;}
	.st3{fill:#EFCC24;}
</style>
<polygon id="XMLID_445_" class="st0" points="13.1,0 0,8.9 0,22 48.9,22 "/>
<path id="XMLID_444_" class="st1" d="M104.7,12.5c-3.2,2.6-6.2,5.5-8.9,8.8c-0.1,0.1-0.2,0.2-0.2,0.3c-0.1,0.1-0.1,0.2-0.2,0.3V22  h23l-7.8-13.5C108.5,9.7,106.6,11.1,104.7,12.5z"/>
<path id="XMLID_443_" class="st2" d="M175.6,12.5C168.3,6.7,160,3,151.4,1.3c-14-2.8-28.6-0.2-40.9,7.3l7.8,13.5h66.8  c-1.5-2-3.2-3.9-5.1-5.7C178.6,15,177.2,13.7,175.6,12.5z"/>
<polygon id="XMLID_442_" class="st1" points="264,14.7 263.9,14.7 236,0 218.5,22 277.8,22 263.9,14.7 "/>
<path id="XMLID_441_" class="st3" d="M349,3.8c-3,1.1-5.9,2.5-8.6,4.1l7.1,14H400V9.2c-6.1-4-12.8-6.6-19.7-8  C369.8-0.9,359,0.1,349,3.8z"/>
<path id="XMLID_440_" class="st0" d="M325.4,20.6c-0.3,0.4-0.6,0.7-0.9,1.1c-0.1,0.1-0.2,0.2-0.3,0.3h23.2l-7.1-14  C334.8,11.2,329.8,15.4,325.4,20.6z"/>
</svg>