<?xml version="1.0" encoding="UTF-8"?>
<!-- Generator: Adobe Illustrator 21.0.0, SVG Export Plug-In . SVG Version: 6.00 Build 0)  -->
<svg version="1.1" id="圖層_1" xmlns="http://www.w3.org/2000/svg" xmlns:xlink="http://www.w3.org/1999/xlink" x="0px" y="0px" viewBox="0 0 16.3 10.2" style="enable-background:new 0 0 16.3 10.2;" xml:space="preserve">
<style type="text/css">
	.st0{fill:#273744;}
</style>
<path id="XMLID_207_" class="st0" d="M16.2,2.8c-0.1-0.3-0.1-0.5-0.3-0.8c-0.2-0.4-0.4-0.8-0.8-1.1c-0.1-0.1-0.2-0.2-0.3-0.2  c-0.5-0.4-1-0.6-1.5-0.7c-0.9-0.2-1.8,0-2.6,0.5c-0.1,0.1-0.3,0.2-0.4,0.3C10.2,0.9,10,1.1,9.8,1.3c0,0,0,0,0,0c0,0,0,0,0,0L8.9,2.4  c0,0,0,0,0,0L7,4.8L6.8,5c0,0,0,0,0,0l0,0l-2,2.5l0,0l0,0.1C4.7,7.7,4.6,7.8,4.5,7.9C4.2,8.1,3.9,8.2,3.6,8.2  c-0.4,0-0.8-0.1-1.1-0.4C2.2,7.6,2,7.3,1.9,7c0-0.1,0-0.2,0-0.2c0-0.3,0-0.6,0.1-0.9c0.1-0.1,0.2-0.3,0.3-0.4c0,0,0,0,0.1-0.1  l0.5-0.6l0.6-0.8l0.3-0.4l0.5-0.6l0.4-0.5l1.8,0.9l1.3-1.6L5.9,0.9l0,0l0,0L4.1-0.1L1.9,2.7L1.7,3L0.8,4.1l0,0  C0.7,4.3,0.6,4.4,0.5,4.6C-0.1,5.4-0.2,6.4,0,7.4c0,0.2,0.1,0.4,0.2,0.5c0,0,0,0.1,0,0.1C0.4,8.4,0.7,8.8,1,9.1  c0.1,0.1,0.2,0.2,0.3,0.2c0.5,0.4,1,0.6,1.5,0.7c0.7,0.1,1.4,0.1,2-0.2C5,9.8,5.2,9.8,5.4,9.6c0.4-0.2,0.7-0.5,1-0.8  c0,0,0,0,0.1-0.1c0,0,0,0,0.1-0.1l0.8-1L9,5.5l0.1-0.2l0.2-0.3l1.9-2.4l0.1-0.2l0,0c0,0,0,0,0,0c0.1-0.1,0.2-0.3,0.4-0.4  C12,2,12.3,1.9,12.6,1.9c0.4,0,0.8,0.1,1.1,0.4c0.4,0.3,0.7,0.9,0.6,1.4c0,0,0,0.1,0,0.1c0,0.2-0.1,0.3-0.1,0.5  c-0.1,0.1-0.1,0.2-0.2,0.3l0,0c0,0,0,0,0,0.1c0,0,0,0,0,0.1l-0.5,0.6l-0.8,1l-0.3,0.4l-0.3,0.4l-0.4,0.5L9.7,6.7L8.5,8.3l1.8,0.9  l0,0l0,0l1.8,0.9l2-2.5l0,0l1.4-1.8c0,0,0,0,0-0.1c0,0,0,0,0-0.1c0.1-0.1,0.1-0.2,0.2-0.3c0.4-0.6,0.6-1.3,0.6-2  C16.3,3.3,16.2,3.1,16.2,2.8z"/>
</svg>